<svg width="62" height="70" viewBox="0 0 62 70" fill="none" xmlns="http://www.w3.org/2000/svg">
<path fill-rule="evenodd" clip-rule="evenodd" d="M30.597 0.101692C30.8491 -0.0338975 31.1509 -0.0338975 31.403 0.101692L61.5419 16.3149C61.8236 16.4666 62 16.7641 62 17.0882V53.1417C62 53.4658 61.8236 53.7637 61.5419 53.9152L32.2087 69.695C31.4526 70.1017 30.5474 70.1017 29.7913 69.695L0.458214 53.9152C0.176321 53.7637 0 53.4658 0 53.1417V17.0882C0 16.7641 0.176321 16.4666 0.458214 16.3149L30.597 0.101692ZM4.81478 22.0896C4.246 21.6658 3.44444 22.0785 3.44444 22.7953V41.8262C3.44444 42.7432 4.65589 43.0429 5.0704 42.2284L12.0938 28.4307C12.2886 28.048 12.1802 27.578 11.8382 27.3232L4.81478 22.0896ZM13.9954 32.3133C14.3084 31.6983 15.1667 31.6787 15.5065 32.2786L26.9424 52.461C27.2955 53.0847 26.7985 53.8508 26.0955 53.7665L5.63146 51.3203C5.03381 51.2489 4.69075 50.5923 4.96723 50.0491L13.9954 32.3133ZM15.2387 55.9928C14.2919 55.8798 13.8926 57.1821 14.7352 57.6354L30.597 66.168C30.8491 66.3038 31.1509 66.3038 31.403 66.168L47.2647 57.6354C48.1075 57.1821 47.708 55.8798 46.7614 55.9928L31.1006 57.865C31.0338 57.873 30.9662 57.873 30.8994 57.865L15.2387 55.9928ZM56.9294 42.2284C57.3441 43.0429 58.5556 42.7432 58.5556 41.8262V22.7953C58.5556 22.0785 57.754 21.6658 57.1854 22.0896L50.1618 27.3232C49.8198 27.578 49.7113 28.048 49.9062 28.4307L56.9294 42.2284ZM47.3091 23.9663C47.5795 24.3857 48.1409 24.4889 48.5388 24.1924L55.9354 18.6808C56.4476 18.299 56.3904 17.504 55.8289 17.2019L39.0634 8.18298C38.2771 7.75983 37.4525 8.67931 37.9402 9.4358L47.3091 23.9663ZM24.0597 9.4358C24.5475 8.67931 23.7231 7.75983 22.9365 8.18298L6.1711 17.2019C5.60948 17.504 5.55234 18.299 6.06477 18.6808L13.4613 24.1924C13.8591 24.4889 14.4204 24.3857 14.6908 23.9663L24.0597 9.4358ZM31.7202 6.17545C31.3803 5.64817 30.6197 5.64817 30.2798 6.17545L18.6995 24.1355C18.3243 24.7175 18.7352 25.49 19.4198 25.49H42.5802C43.265 25.49 43.6756 24.7175 43.3005 24.1355L31.7202 6.17545ZM43.639 30.3018C43.9697 29.7184 43.5553 28.99 42.893 28.99H19.1072C18.4448 28.99 18.0304 29.7184 18.3609 30.3018L30.2536 51.2906C30.5849 51.8754 31.4151 51.8754 31.7464 51.2906L43.639 30.3018ZM35.0576 52.461C34.7045 53.0847 35.2015 53.8508 35.9045 53.7665L56.3687 51.3203C56.9663 51.2489 57.3094 50.5923 57.0328 50.0491L48.0045 32.3133C47.6918 31.6983 46.8334 31.6787 46.4935 32.2786L35.0576 52.461Z" fill="white"/>
</svg>
