<svg width="79" height="82" viewBox="0 0 79 82" fill="none" xmlns="http://www.w3.org/2000/svg">
<path d="M77.8668 51.1032C76.8629 50.2478 75.4293 50.115 74.2848 50.7712C66.3434 55.0485 56.7538 54.9118 48.9368 50.4079C41.1204 45.9079 36.1908 37.6849 35.9058 28.6699C35.6206 19.6543 40.0191 11.1349 47.5348 6.14694C48.6246 5.436 49.1715 4.13134 48.9098 2.85394C48.6168 1.57664 47.5778 0.600035 46.2848 0.396935C36.1008 -1.03666 25.7578 1.44384 17.3318 7.33834C8.90988 13.2328 3.03478 22.1043 0.89078 32.1583C-1.24982 42.2173 0.50015 52.7093 5.78918 61.5253C11.0782 70.3413 19.5162 76.8263 29.3942 79.6663C39.277 82.5101 49.8672 81.4983 59.0312 76.8382C68.1992 72.182 75.2582 64.2212 78.7852 54.5612C79.2227 53.3307 78.8555 51.9557 77.8672 51.1042L77.8668 51.1032ZM40.6598 74.9782C28.7108 75.0173 17.6008 68.8532 11.3158 58.6932C5.02668 48.5372 4.46418 35.8412 9.82748 25.1702C15.1908 14.4942 25.7145 7.36925 37.6165 6.35425C31.9095 12.5534 28.8509 20.7332 29.0931 29.1552C29.3314 37.5771 32.8548 45.5692 38.9095 51.4322C44.9642 57.2916 53.0655 60.5533 61.4915 60.522C64.1477 60.522 66.7962 60.1861 69.3665 59.522C62.9954 69.1626 52.2148 74.9662 40.6598 74.9782Z" fill="black"/>
</svg>
