<svg width="96" height="96" viewBox="0 0 96 96" fill="none" xmlns="http://www.w3.org/2000/svg">
<path d="M48 0C46.3431 0 45 1.34315 45 3V21C45 22.6569 46.3431 24 48 24C49.6568 24 51 22.6569 51 21V3C51 1.34315 49.6568 0 48 0ZM16.1875 13.1875C15.4197 13.1875 14.6483 13.4767 14.0625 14.0625C12.8909 15.2341 12.8909 17.1409 14.0625 18.3125L26.7812 31.0313C27.9528 32.2028 29.8596 32.2029 31.0312 31.0313C32.2028 29.8597 32.2028 27.9528 31.0312 26.7813L18.3125 14.0625C17.7267 13.4767 16.9553 13.1875 16.1875 13.1875ZM79.8125 13.1875C79.0447 13.1875 78.2733 13.4767 77.6875 14.0625L64.9688 26.7813C63.7972 27.9528 63.7971 29.8596 64.9688 31.0313C66.1403 32.2028 68.0472 32.2028 69.2188 31.0313L81.9375 18.3125C83.1091 17.1409 83.109 15.234 81.9375 14.0625C81.3517 13.4767 80.5803 13.1875 79.8125 13.1875ZM48 28C36.9899 28 28 36.9899 28 48C28 59.0101 36.9899 68 48 68C59.0101 68 68 59.0101 68 48C68 36.9899 59.0101 28 48 28ZM48 34C55.7674 34 62 40.2326 62 48C62 55.7674 55.7674 62 48 62C40.2326 62 34 55.7674 34 48C34 40.2326 40.2326 34 48 34ZM3 45C1.34315 45 0 46.3432 0 48C0 49.6569 1.34315 51 3 51H21C22.6568 51 24 49.6569 24 48C24 46.3432 22.6568 45 21 45H3ZM75 45C73.3432 45 72 46.3431 72 48C72 49.6568 73.3432 51 75 51H93C94.6568 51 96 49.6568 96 48C96 46.3431 94.6568 45 93 45H75ZM28.9062 64.0937C28.1385 64.0937 27.367 64.383 26.7812 64.9687L14.0625 77.6875C12.8909 78.859 12.891 80.766 14.0625 81.9375C15.2341 83.1091 17.1409 83.1091 18.3125 81.9375L31.0312 69.2187C32.2028 68.0472 32.2029 66.1403 31.0312 64.9687C30.4455 64.383 29.674 64.0937 28.9062 64.0937ZM67.0938 64.0937C66.326 64.0937 65.5546 64.3829 64.9688 64.9687C63.7972 66.1403 63.7972 68.0472 64.9688 69.2187L77.6875 81.9375C78.8591 83.1091 80.766 83.109 81.9375 81.9375C83.1091 80.7659 83.1091 78.8591 81.9375 77.6875L69.2188 64.9687C68.633 64.383 67.8615 64.0937 67.0938 64.0937ZM48 72C46.3432 72 45 73.3431 45 75V93C45 94.6568 46.3432 96 48 96C49.6569 96 51 94.6568 51 93V75C51 73.3431 49.6569 72 48 72Z" fill="black"/>
</svg>
